# xmcd
#
# Track frame offsets:
#	187
#	17195
#	33025
#	51612
#
# Disc length: 1052 seconds
#
# Revision: 1
# Processed by: cddbd v1.5.2PL0 Copyright (c) Steve Scherf et al.
# Submitted via: audiograbber 1.83.01
#
DISCID=2d041a04
DTITLE=Bruce Dickinson - Skunkworks Live (EP)
DYEAR=1996
DGENRE=Hard Rock
TTITLE0=Inertia (Live)
TTITLE1=Faith (Live)
TTITLE2=Innerspace (Live)
TTITLE3=The Prisoner (Live)
EXTD=YEAR: 1996
EXTT0=
EXTT1=
EXTT2=
EXTT3=
PLAYORDER=
